<svg width="20" height="20" viewBox="0 0 20 20" fill="none" xmlns="http://www.w3.org/2000/svg">
<path d="M12.3388 9.54374C12.6988 9.54374 12.8788 9.81374 12.8788 10.1737C12.7888 11.6137 11.6188 12.7837 10.1788 12.8737C9.90879 12.8737 9.63879 12.6037 9.63879 12.3337C9.63879 11.9737 9.81879 11.7037 10.1788 11.7037C10.9888 11.6137 11.7088 10.9837 11.7988 10.0837C11.7088 9.81374 11.9788 9.54374 12.3388 9.54374ZM6.57878 14.2237L4.14877 16.6537C4.05877 16.7437 3.87877 16.8337 3.69877 16.8337C3.51877 16.8337 3.42877 16.7437 3.24877 16.6537C2.97876 16.3837 2.97876 16.0237 3.24877 15.8437L5.22877 13.8637C4.59877 13.3237 4.05877 12.6937 3.60877 11.8837C2.97876 10.8937 2.97876 9.09374 3.60877 8.01374C5.22877 5.49375 7.56878 4.05376 9.99879 4.05376C11.3488 4.05376 12.6088 4.50376 13.8688 5.31375L15.9388 3.24376C16.2088 2.97376 16.5688 2.97376 16.7488 3.24376C16.9288 3.51376 17.0188 3.87376 16.7488 4.05376L8.82878 11.9737C8.82878 11.9737 8.82878 11.9737 8.73878 12.0637L6.57878 14.2237ZM8.46878 10.7137L10.7188 8.46374C10.4488 8.37374 10.2688 8.28374 9.99879 8.28374C9.00878 8.28374 8.28878 9.09374 8.28878 9.99374C8.28878 10.2637 8.37878 10.5337 8.46878 10.7137ZM6.03877 13.0537L7.56878 11.5237C7.29878 11.0737 7.11878 10.5337 7.11878 9.99374C7.11878 8.37374 8.37878 7.11375 9.99879 7.11375C10.5388 7.11375 11.0788 7.29375 11.6188 7.56375L13.0588 6.12375C12.1588 5.49375 11.0788 5.22375 10.0888 5.22375C8.01878 5.22375 6.12877 6.48375 4.68877 8.64374C4.23877 9.36374 4.23877 10.6237 4.68877 11.3437C5.04877 12.0637 5.58877 12.6037 6.03877 13.0537ZM15.5788 6.93375C15.3988 6.66375 15.0388 6.66375 14.7688 6.84375C14.4988 7.11375 14.4988 7.47375 14.6788 7.65374C14.9488 7.92374 15.1288 8.28374 15.3988 8.55374C15.8488 9.27374 15.8488 10.5337 15.3988 11.2537C14.0488 13.4137 12.0688 14.6737 9.99879 14.6737C9.27878 14.6737 8.55878 14.4937 7.83878 14.2237C7.56878 14.1337 7.20878 14.2237 7.02878 14.4937C6.93878 14.7637 7.02878 15.1237 7.29878 15.3037C8.19878 15.7537 9.09878 15.9337 9.99879 15.9337C12.4288 15.9337 14.7688 14.4937 16.3888 11.9737C17.1088 10.8937 17.1088 9.09374 16.3888 8.01374C16.1188 7.65374 15.8488 7.29375 15.5788 6.93375Z" fill="#9CA3AF"/>
</svg>
