<svg width="20" height="20" viewBox="0 0 20 20" fill="none" xmlns="http://www.w3.org/2000/svg">
<g id="security/eye">
<g id="Vector">
<path d="M10 12.8882C8.40666 12.8882 7.11333 11.5948 7.11333 10.0015C7.11333 8.40813 8.40666 7.11479 10 7.11479C11.5933 7.11479 12.8867 8.40813 12.8867 10.0015C12.8867 11.5948 11.5933 12.8882 10 12.8882ZM10 8.1148C8.96001 8.1148 8.11333 8.96149 8.11333 10.0015C8.11333 11.0415 8.96001 11.8882 10 11.8882C11.04 11.8882 11.8867 11.0415 11.8867 10.0015C11.8867 8.96149 11.04 8.1148 10 8.1148Z" fill="#9CA3AF"/>
<path fill-rule="evenodd" clip-rule="evenodd" d="M10 13.0882C8.2962 13.0882 6.91333 11.7053 6.91333 10.0015C6.91333 8.29767 8.2962 6.9148 10 6.9148C11.7038 6.9148 13.0867 8.29767 13.0867 10.0015C13.0867 11.7053 11.7038 13.0882 10 13.0882ZM10 8.3148C9.07047 8.3148 8.31333 9.07194 8.31333 10.0015C8.31333 10.931 9.07047 11.6882 10 11.6882C10.9296 11.6882 11.6867 10.931 11.6867 10.0015C11.6867 9.07194 10.9296 8.3148 10 8.3148ZM7.11333 10.0015C7.11333 11.5948 8.40666 12.8882 10 12.8882C11.5933 12.8882 12.8867 11.5948 12.8867 10.0015C12.8867 8.40813 11.5933 7.11479 10 7.11479C8.40666 7.11479 7.11333 8.40813 7.11333 10.0015ZM8.11333 10.0015C8.11333 8.96149 8.96001 8.1148 10 8.1148C11.04 8.1148 11.8867 8.96149 11.8867 10.0015C11.8867 11.0415 11.04 11.8882 10 11.8882C8.96001 11.8882 8.11333 11.0415 8.11333 10.0015Z" fill="#9CA3AF"/>
<path d="M9.99756 16.0136C7.49091 16.0136 5.12425 14.5469 3.49757 12.0003C2.79091 10.9003 2.79091 9.10692 3.49757 8.00022C5.13091 5.45354 7.49758 3.98687 9.99756 3.98687C12.4976 3.98687 14.8642 5.45354 16.4909 8.00022C17.1976 9.10025 17.1976 10.8936 16.4909 12.0003C14.8642 14.5469 12.4976 16.0136 9.99756 16.0136ZM9.99756 4.98687C7.84425 4.98687 5.78425 6.28021 4.34425 8.54023C3.84425 9.32025 3.84425 10.6803 4.34425 11.4603C5.78425 13.7203 7.84425 15.0136 9.99756 15.0136C12.1509 15.0136 14.2109 13.7203 15.6509 11.4603C16.1509 10.6803 16.1509 9.32025 15.6509 8.54023C14.2109 6.28021 12.1509 4.98687 9.99756 4.98687Z" fill="#9CA3AF"/>
<path fill-rule="evenodd" clip-rule="evenodd" d="M3.32922 7.89225C4.99017 5.30252 7.41404 3.78687 9.99756 3.78687C12.581 3.78687 15.0049 5.30241 16.6593 7.89229C17.0377 8.48148 17.2209 9.24452 17.2209 9.99775C17.2209 10.7511 17.0377 11.5156 16.6595 12.1079C15.0051 14.698 12.5811 16.2136 9.99756 16.2136C7.40758 16.2136 4.98362 14.6982 3.32919 12.1082C2.95076 11.519 2.76758 10.756 2.76758 10.0028C2.76758 9.24939 2.95103 8.48454 3.32922 7.89225ZM3.49757 12.0003C5.12425 14.5469 7.49091 16.0136 9.99756 16.0136C12.4976 16.0136 14.8642 14.5469 16.4909 12.0003C17.1976 10.8936 17.1976 9.10025 16.4909 8.00022C14.8642 5.45354 12.4976 3.98687 9.99756 3.98687C7.49758 3.98687 5.13091 5.45354 3.49757 8.00022C2.79091 9.10692 2.79091 10.9003 3.49757 12.0003ZM4.51262 8.64816C4.28879 8.99735 4.16925 9.49181 4.16925 10.0003C4.16925 10.5087 4.28879 11.0031 4.51262 11.3523C5.9261 13.5707 7.92963 14.8136 9.99756 14.8136C12.0655 14.8136 14.0687 13.5712 15.4822 11.3528C15.7061 11.0036 15.8259 10.5087 15.8259 10.0003C15.8259 9.49181 15.7064 8.99735 15.4825 8.64816C14.069 6.42976 12.0655 5.18687 9.99756 5.18687C7.92963 5.18687 5.92611 6.42977 4.51262 8.64816ZM4.34425 8.54023C5.78425 6.28021 7.84425 4.98687 9.99756 4.98687C12.1509 4.98687 14.2109 6.28021 15.6509 8.54023C16.1509 9.32025 16.1509 10.6803 15.6509 11.4603C14.2109 13.7203 12.1509 15.0136 9.99756 15.0136C7.84425 15.0136 5.78425 13.7203 4.34425 11.4603C3.84425 10.6803 3.84425 9.32025 4.34425 8.54023Z" fill="#9CA3AF"/>
</g>
</g>
</svg>
