<svg width="14" height="13" viewBox="0 0 14 13" fill="none" xmlns="http://www.w3.org/2000/svg">
<path d="M6.54874 0.945683C6.72986 0.566122 7.27014 0.566122 7.45126 0.945683L8.89923 3.98015C8.97213 4.13291 9.11735 4.23842 9.28515 4.26054L12.6186 4.69994C13.0355 4.7549 13.2025 5.26874 12.8974 5.55828L10.4589 7.8731C10.3362 7.98962 10.2807 8.16034 10.3115 8.32676L10.9237 11.6328C11.0003 12.0463 10.5632 12.3639 10.1936 12.1633L7.23851 10.5594C7.08975 10.4787 6.91025 10.4787 6.76149 10.5594L3.80644 12.1633C3.43681 12.3639 2.99971 12.0463 3.07629 11.6328L3.68847 8.32676C3.71928 8.16034 3.66381 7.98962 3.54106 7.8731L1.10256 5.55828C0.797541 5.26874 0.964496 4.7549 1.38145 4.69994L4.71485 4.26054C4.88265 4.23842 5.02787 4.13291 5.10077 3.98015L6.54874 0.945683Z" fill="#D1D5DB"/>
</svg>
